<svg viewBox="0 0 88 31" class="" xmlns="http://www.w3.org/2000/svg"
     fill="#18ade3">
    <g clip-path="url(#clip0_6086_5460)">
        <path d="M52.8449 25.2279L53.3369 22.4729H57.8369L57.963 21.8269H52.6889L51.2729 29.7639H56.593L56.7189 29.1179H52.153L52.735 25.8639H56.0789L56.1929 25.2289L52.8449 25.2279Z"></path>
        <path d="M57.8579 29.7629H58.6229L59.2479 26.2629H61.7959L62.6299 28.563C62.7411 28.9084 62.9101 29.2323 63.1299 29.5209C63.2833 29.7104 63.5005 29.8374 63.7409 29.878C63.9568 29.9088 64.176 29.9088 64.3919 29.878L64.4919 29.322C63.9586 29.3826 63.5779 29.0767 63.3499 28.404L62.5699 26.183C63.1679 26.1193 63.7274 25.8578 64.1599 25.4399C64.5913 24.9184 64.8007 24.2484 64.7429 23.574C64.7658 23.3183 64.7226 23.0609 64.6176 22.8267C64.5125 22.5924 64.3491 22.389 64.1429 22.236C63.6092 21.9298 62.9969 21.7878 62.3829 21.8279H59.2729L57.8579 29.7629ZM63.5199 22.739C63.6639 22.8456 63.7775 22.9879 63.8496 23.1519C63.9217 23.3158 63.9497 23.4958 63.9309 23.674C63.9626 23.9492 63.9312 24.2281 63.839 24.4894C63.7468 24.7507 63.5963 24.9875 63.3989 25.182C62.8972 25.5024 62.3043 25.6499 61.7109 25.602H59.3649L59.9239 22.473H62.2639C62.6994 22.4427 63.1347 22.5345 63.5209 22.738L63.5199 22.739Z"></path>
        <path d="M65.553 29.7629H66.318L66.889 26.5629H69.108C69.9483 26.6119 70.7778 26.3539 71.442 25.8369C71.7305 25.5749 71.9564 25.2514 72.103 24.8903C72.2496 24.5293 72.3132 24.1399 72.289 23.7509C72.3078 23.4808 72.2633 23.2099 72.1592 22.96C72.055 22.71 71.894 22.4878 71.689 22.3109C71.1885 21.9559 70.5813 21.7836 69.969 21.8229H66.969L65.553 29.7629ZM71.467 23.8329C71.489 24.12 71.4487 24.4084 71.3489 24.6785C71.2492 24.9486 71.0923 25.194 70.889 25.3979C70.4191 25.7746 69.8248 25.961 69.224 25.9199H67.004L67.619 22.4729H69.845C70.9256 22.4729 71.467 22.9262 71.467 23.8329Z"></path>
        <path d="M80.084 4.19598L83.984 20.124H87.716L82.754 0H78.764L66.335 20.124H70.554L80.084 4.19598Z"></path>
        <path fill-rule="evenodd" clip-rule="evenodd" d="M79.2318 17.064L76.8029 30.2709H72.8098L75.4929 17.0709L79.2318 17.064Z"></path>
        <path d="M6.23192 5.26801L13.6909 20.124H17.5369L21.0369 0H17.3659L14.7729 14.919L7.28191 0H3.48192L0.00390625 20.124H3.67491L6.23192 5.26801Z"></path>
        <path d="M33.6158 4.19598L37.5158 20.124H41.2468L36.2808 0H32.2908L19.8618 20.124H24.0808"></path>
        <path d="M49.5348 4.15491L52.3058 17.0549L56.0658 17.0059L63.4978 3.80591L60.6508 20.1299H64.1178L67.6258 0.00585938H62.4588L54.9388 13.4889L52.0108 0.00585938H46.9108L43.4038 20.1299H46.7548L49.5348 4.15491Z"></path>
    </g>
    <defs>
        <clipPath id="clip0_6086_5460">
            <rect width="87.715" height="30.273" fill="white"></rect>
        </clipPath>
    </defs>
</svg>